<svg width="128" height="128" viewBox="0 0 128 128" fill="none" xmlns="http://www.w3.org/2000/svg">
<path d="M40.6956 86.48C37.6556 86.48 34.9156 85.8 32.4756 84.44C30.0356 83.04 28.0956 81.1 26.6556 78.62C25.2556 76.14 24.5556 73.22 24.5556 69.86C24.5556 66.46 25.2556 63.52 26.6556 61.04C28.0956 58.56 30.0356 56.64 32.4756 55.28C34.9156 53.92 37.6556 53.24 40.6956 53.24C43.4156 53.24 45.7956 53.84 47.8356 55.04C49.8756 56.24 51.4556 58.06 52.5756 60.5C53.6956 62.94 54.2556 66.06 54.2556 69.86C54.2556 73.62 53.7156 76.74 52.6356 79.22C51.5556 81.66 49.9956 83.48 47.9556 84.68C45.9556 85.88 43.5356 86.48 40.6956 86.48ZM42.3156 78.8C43.8356 78.8 45.2156 78.44 46.4556 77.72C47.6956 77 48.6756 75.98 49.3956 74.66C50.1556 73.3 50.5356 71.7 50.5356 69.86C50.5356 67.98 50.1556 66.38 49.3956 65.06C48.6756 63.74 47.6956 62.72 46.4556 62C45.2156 61.28 43.8356 60.92 42.3156 60.92C40.7556 60.92 39.3556 61.28 38.1156 62C36.8756 62.72 35.8756 63.74 35.1156 65.06C34.3956 66.38 34.0356 67.98 34.0356 69.86C34.0356 71.7 34.3956 73.3 35.1156 74.66C35.8756 75.98 36.8756 77 38.1156 77.72C39.3556 78.44 40.7556 78.8 42.3156 78.8ZM50.7756 86V79.4L50.9556 69.8L50.3556 60.26V41.48H59.7156V86H50.7756ZM87.4586 86.48C84.7386 86.48 82.3586 85.88 80.3186 84.68C78.2786 83.48 76.6786 81.66 75.5186 79.22C74.3986 76.74 73.8386 73.62 73.8386 69.86C73.8386 66.06 74.3786 62.94 75.4586 60.5C76.5386 58.06 78.0986 56.24 80.1386 55.04C82.1786 53.84 84.6186 53.24 87.4586 53.24C90.4986 53.24 93.2186 53.94 95.6186 55.34C98.0586 56.7 99.9786 58.62 101.379 61.1C102.819 63.58 103.539 66.5 103.539 69.86C103.539 73.26 102.819 76.2 101.379 78.68C99.9786 81.16 98.0586 83.08 95.6186 84.44C93.2186 85.8 90.4986 86.48 87.4586 86.48ZM68.3786 97.64V53.72H77.3186V60.32L77.1386 69.92L77.7386 79.46V97.64H68.3786ZM85.8386 78.8C87.3986 78.8 88.7786 78.44 89.9786 77.72C91.2186 77 92.1986 75.98 92.9186 74.66C93.6786 73.3 94.0586 71.7 94.0586 69.86C94.0586 67.98 93.6786 66.38 92.9186 65.06C92.1986 63.74 91.2186 62.72 89.9786 62C88.7786 61.28 87.3986 60.92 85.8386 60.92C84.2786 60.92 82.8786 61.28 81.6386 62C80.3986 62.72 79.4186 63.74 78.6986 65.06C77.9786 66.38 77.6186 67.98 77.6186 69.86C77.6186 71.7 77.9786 73.3 78.6986 74.66C79.4186 75.98 80.3986 77 81.6386 77.72C82.8786 78.44 84.2786 78.8 85.8386 78.8Z" fill="#B3FF00"/>
</svg>
